<?xml version="1.0" encoding="UTF-8" standalone="no"?><!DOCTYPE svg PUBLIC "-//W3C//DTD SVG 1.1//EN" "http://www.w3.org/Graphics/SVG/1.1/DTD/svg11.dtd"><svg width="100%" height="100%" viewBox="0 0 100 100" version="1.1" xmlns="http://www.w3.org/2000/svg" xmlns:xlink="http://www.w3.org/1999/xlink" xml:space="preserve" xmlns:serif="http://www.serif.com/" style="fill-rule:evenodd;clip-rule:evenodd;stroke-linecap:round;stroke-linejoin:round;"><path d="M57.633,69.033c1.767,0.811 3.877,0.284 5.055,-1.262l1.479,-1.938c1.572,-2.096 4.045,-3.333 6.666,-3.333l12.5,0c4.572,0 8.334,3.762 8.334,8.333l-0,12.5c-0,4.572 -3.762,8.334 -8.334,8.334c-41.143,-0 -75,-33.857 -75,-75c0,-4.572 3.762,-8.334 8.334,-8.334l12.5,0c4.571,0 8.333,3.762 8.333,8.334l0,12.5c0,2.621 -1.237,5.094 -3.333,6.666l-1.95,1.463c-1.572,1.2 -2.083,3.36 -1.217,5.137c5.693,11.564 15.062,20.921 26.633,26.6" style="fill:none;fill-rule:nonzero;stroke:#fff;stroke-width:8.33px;"/></svg>