<?xml version="1.0" encoding="UTF-8" standalone="no"?><!DOCTYPE svg PUBLIC "-//W3C//DTD SVG 1.1//EN" "http://www.w3.org/Graphics/SVG/1.1/DTD/svg11.dtd"><svg width="100%" height="100%" viewBox="0 0 534 534" version="1.1" xmlns="http://www.w3.org/2000/svg" xmlns:xlink="http://www.w3.org/1999/xlink" xml:space="preserve" xmlns:serif="http://www.serif.com/" style="fill-rule:evenodd;clip-rule:evenodd;stroke-linejoin:round;stroke-miterlimit:2;"><path d="M264.124,51.031c-17.592,0.083 -34.383,1.579 -49.167,4.196c-43.541,7.691 -51.441,23.791 -51.441,53.487l-0,39.213l102.887,-0l0,13.071l-141.504,-0c-29.9,-0 -56.083,17.97 -64.275,52.17c-9.45,39.188 -9.867,63.646 0,104.567c7.313,30.463 24.779,52.163 54.683,52.163l35.38,-0l-0,-47.009c-0,-33.962 29.379,-63.916 64.275,-63.916l102.77,-0c28.609,-0 51.442,-23.559 51.442,-52.284l0,-97.971c0,-27.887 -23.525,-48.833 -51.442,-53.487c-17.683,-2.942 -36.02,-4.279 -53.608,-4.2Zm-55.642,31.537c10.625,0 19.309,8.821 19.309,19.671c-0,10.804 -8.679,19.542 -19.309,19.542c-10.666,-0 -19.304,-8.738 -19.304,-19.542c-0.004,-10.85 8.638,-19.671 19.304,-19.671Z" style="fill:url(#_Linear1);fill-rule:nonzero;"/><path d="M382.003,160.993l0,45.696c0,35.417 -30.033,65.229 -64.275,65.229l-102.771,0c-28.15,0 -51.441,24.096 -51.441,52.288l-0,97.979c-0,27.879 24.241,44.283 51.441,52.279c32.567,9.571 63.8,11.304 102.771,0c25.9,-7.504 51.442,-22.596 51.442,-52.279l-0,-39.217l-102.767,0l0,-13.075l154.217,0c29.9,0 41.05,-20.854 51.45,-52.162c10.742,-32.229 10.279,-63.225 -0,-104.567c-7.392,-29.771 -21.504,-52.171 -51.45,-52.171l-38.617,0Zm-57.804,248.117c10.671,0 19.308,8.738 19.308,19.55c0,10.842 -8.641,19.663 -19.308,19.663c-10.625,-0 -19.304,-8.821 -19.304,-19.663c-0,-10.812 8.679,-19.55 19.304,-19.55Z" style="fill:url(#_Linear2);fill-rule:nonzero;"/><defs><linearGradient id="_Linear1" x1="0" y1="0" x2="1" y2="0" gradientUnits="userSpaceOnUse" gradientTransform="matrix(235.538,204.449,-204.449,235.538,43.0653,63.2918)"><stop offset="0" style="stop-color:#5a9fd4;stop-opacity:1"/><stop offset="1" style="stop-color:#306998;stop-opacity:1"/></linearGradient><linearGradient id="_Linear2" x1="0" y1="0" x2="1" y2="0" gradientUnits="userSpaceOnUse" gradientTransform="matrix(-84.1075,-120.052,120.052,-84.1075,369.657,391.466)"><stop offset="0" style="stop-color:#ffd43b;stop-opacity:1"/><stop offset="1" style="stop-color:#ffe873;stop-opacity:1"/></linearGradient></defs></svg>